<svg width="104" height="32" viewBox="0 0 104 32" fill="none" xmlns="http://www.w3.org/2000/svg">
<path d="M1.25213 31.9342C0.856719 31.9342 0.549179 31.8684 0.329507 31.7368C0.109836 31.6052 0 31.353 0 30.9911V24.2139H1.06541V26.0891H3.13032C3.66851 26.0891 4.11884 26.1549 4.47031 26.2865C4.82179 26.4181 5.10736 26.6045 5.31605 26.8568C5.52474 27.109 5.67851 27.4161 5.76638 27.767C5.85424 28.1289 5.89818 28.5346 5.89818 28.9843C5.89818 29.4448 5.85424 29.8506 5.76638 30.2125C5.67851 30.5744 5.53572 30.8924 5.31605 31.1446C5.10736 31.4078 4.82179 31.5943 4.47031 31.7368C4.11884 31.8684 3.66851 31.9452 3.13032 31.9452H1.25213V31.9342ZM1.06541 30.7828C1.06541 30.9034 1.09836 31.0021 1.15328 31.0788C1.20819 31.1446 1.32901 31.1885 1.50475 31.1885H2.9436C3.34999 31.1885 3.6795 31.1337 3.92114 31.024C4.16277 30.9144 4.34949 30.7608 4.47031 30.5634C4.60212 30.366 4.679 30.1357 4.72294 29.8616C4.75589 29.5874 4.77785 29.3023 4.77785 28.9843C4.77785 28.6662 4.75589 28.3811 4.72294 28.1069C4.68998 27.8438 4.60212 27.6135 4.47031 27.427C4.33851 27.2406 4.16277 27.098 3.92114 26.9884C3.6795 26.8897 3.34999 26.8348 2.9436 26.8348H1.07639V30.7828H1.06541Z" fill="white"/>
<path d="M12.7519 30.9692C12.7519 31.2762 12.675 31.5175 12.5213 31.682C12.3675 31.8465 12.1039 31.9342 11.7304 31.9342H9.22618C8.49028 31.9342 7.91913 31.7917 7.53471 31.4956C7.1393 31.1995 6.95258 30.7169 6.95258 30.037V26.0782H8.01798V29.8616C8.01798 30.2564 8.11683 30.5744 8.31454 30.8156C8.51224 31.0569 8.86372 31.1775 9.36896 31.1775H11.2911C11.4229 31.1775 11.5108 31.1556 11.5876 31.1008C11.6535 31.0459 11.6865 30.9472 11.6865 30.8047V26.0782H12.7519V30.9692Z" fill="white"/>
<path d="M13.8722 31.1775H17.7055C18.2437 31.1775 18.5183 30.9363 18.5183 30.4428C18.5183 30.2893 18.4853 30.1577 18.4084 30.0699C18.3316 29.9712 18.2217 29.8945 18.0789 29.8287C17.9361 29.7629 17.7714 29.708 17.5627 29.6532C17.354 29.6093 17.1234 29.5545 16.8598 29.4887L15.6296 29.2255C14.9816 29.083 14.5093 28.8965 14.2127 28.6443C13.9162 28.403 13.7624 28.0302 13.7624 27.5367C13.7624 27.0432 13.9162 26.6813 14.2237 26.44C14.5312 26.1988 14.9816 26.0782 15.5747 26.0782H19.2212V26.8239H15.6845C15.366 26.8239 15.1463 26.8787 15.0145 26.9884C14.8827 27.098 14.8168 27.2735 14.8168 27.5367C14.8168 27.7012 14.8498 27.8328 14.9157 27.9424C14.9816 28.0521 15.0694 28.1398 15.1793 28.2056C15.2891 28.2714 15.4209 28.3372 15.5747 28.3811C15.7285 28.425 15.8932 28.4688 16.0799 28.5127L17.4199 28.8088C17.7604 28.8856 18.068 28.9514 18.3316 29.0281C18.6061 29.1049 18.8368 29.1926 19.0235 29.3132C19.2102 29.4339 19.364 29.5764 19.4629 29.7519C19.5617 29.9274 19.6166 30.1577 19.6166 30.4428C19.6166 30.6731 19.5837 30.8705 19.5288 31.0569C19.4738 31.2324 19.386 31.3969 19.2542 31.5175C19.1224 31.6491 18.9576 31.7478 18.7489 31.8136C18.5402 31.8794 18.2657 31.9233 17.9471 31.9233H13.8503V31.1775H13.8722Z" fill="white"/>
<path d="M20.6491 24.2029H21.7475V25.2227H20.6491V24.2029ZM20.6601 26.0781H21.7255V31.9342H20.6601V26.0781Z" fill="white"/>
<path d="M23.0107 27.0432C23.0107 26.7362 23.0876 26.4949 23.2414 26.3304C23.3952 26.1659 23.6588 26.0782 24.0322 26.0782H26.4486C27.1845 26.0782 27.7556 26.2207 28.1401 26.5168C28.5355 26.8129 28.7222 27.2955 28.7222 27.9754V31.9342H27.6568V28.1508C27.6568 27.756 27.5579 27.438 27.3602 27.1968C27.1625 26.9555 26.8111 26.8349 26.3058 26.8349H24.4606C24.3288 26.8349 24.2409 26.8568 24.164 26.9116C24.0981 26.9665 24.0652 27.0652 24.0652 27.2077V31.9342H22.9998V27.0432H23.0107Z" fill="white"/>
<path d="M32.2258 31.9342C31.7205 31.9342 31.3141 31.8684 30.9956 31.7258C30.6771 31.5942 30.4245 31.3968 30.2487 31.1446C30.073 30.8924 29.9522 30.5853 29.8863 30.2234C29.8204 29.8615 29.7874 29.4668 29.7874 29.0281C29.7874 28.4907 29.8423 28.0302 29.9412 27.6463C30.051 27.2625 30.2158 26.9554 30.4574 26.7032C30.699 26.462 31.0176 26.2865 31.402 26.1768C31.7974 26.0672 32.2697 26.0123 32.8408 26.0123C33.2912 26.0123 33.6976 26.0452 34.071 26.122C34.4445 26.1878 34.763 26.3194 35.0376 26.4949C35.3122 26.6703 35.5208 26.9006 35.6746 27.1967C35.8284 27.4928 35.9053 27.8547 35.9053 28.2933C35.9053 28.6333 35.8284 28.8855 35.6856 29.061C35.5428 29.2365 35.2792 29.3242 34.8948 29.3242H30.8748C30.8748 29.5545 30.8968 29.7848 30.9297 30.0151C30.9627 30.2344 31.0395 30.4428 31.1494 30.6073C31.2592 30.7827 31.413 30.9253 31.6217 31.024C31.8304 31.1336 32.094 31.1885 32.4345 31.1885H35.7295V31.9342H32.2258ZM34.4994 28.5675C34.6312 28.5675 34.7081 28.5346 34.752 28.4688C34.7849 28.403 34.8069 28.3372 34.8069 28.2714V28.2275C34.8069 27.9534 34.763 27.7231 34.6641 27.5367C34.5653 27.3502 34.4335 27.1967 34.2577 27.087C34.082 26.9774 33.8733 26.8896 33.6426 26.8458C33.401 26.8019 33.1484 26.769 32.8628 26.769C32.5113 26.769 32.2148 26.8019 31.9622 26.8677C31.7095 26.9335 31.5118 27.0322 31.3471 27.1748C31.1933 27.3173 31.0725 27.5038 30.9956 27.7341C30.9187 27.9644 30.8858 28.2495 30.8858 28.5785H34.4994V28.5675Z" fill="white"/>
<path d="M36.8279 31.1775H40.6611C41.1993 31.1775 41.4739 30.9363 41.4739 30.4428C41.4739 30.2893 41.441 30.1577 41.3641 30.0699C41.2872 29.9712 41.1774 29.8945 41.0346 29.8287C40.8918 29.7629 40.727 29.708 40.5183 29.6532C40.3096 29.6093 40.079 29.5545 39.8154 29.4887L38.5852 29.2255C37.9372 29.083 37.4649 28.8965 37.1683 28.6443C36.8718 28.403 36.718 28.0302 36.718 27.5367C36.718 27.0432 36.8718 26.6813 37.1793 26.44C37.4869 26.1988 37.9372 26.0782 38.5303 26.0782H42.1769V26.8239H38.6621C38.3436 26.8239 38.1239 26.8787 37.9921 26.9884C37.8603 27.098 37.7944 27.2735 37.7944 27.5367C37.7944 27.7012 37.8274 27.8328 37.8933 27.9424C37.9592 28.0521 38.047 28.1398 38.1569 28.2056C38.2667 28.2714 38.3985 28.3372 38.5523 28.3811C38.706 28.425 38.8708 28.4688 39.0575 28.5127L40.3975 28.8088C40.738 28.8856 41.0455 28.9514 41.3092 29.0281C41.5837 29.1049 41.8144 29.1926 42.0011 29.3132C42.1878 29.4339 42.3416 29.5764 42.4405 29.7519C42.5393 29.9274 42.5942 30.1577 42.5942 30.4428C42.5942 30.6731 42.5613 30.8705 42.5064 31.0569C42.4514 31.2324 42.3636 31.3969 42.2318 31.5175C42.1 31.6491 41.9352 31.7478 41.7265 31.8136C41.5178 31.8794 41.2433 31.9233 40.9247 31.9233H36.8279V31.1775Z" fill="white"/>
<path d="M43.4621 31.1776H47.2954C47.8336 31.1776 48.1082 30.9363 48.1082 30.4428C48.1082 30.2893 48.0752 30.1577 47.9984 30.07C47.9215 29.9713 47.8116 29.8945 47.6688 29.8287C47.5261 29.7629 47.3613 29.7081 47.1526 29.6532C46.9439 29.6094 46.7133 29.5545 46.4497 29.4887L45.2195 29.2255C44.5715 29.083 44.0992 28.8966 43.8026 28.6443C43.5061 28.4031 43.3523 28.0302 43.3523 27.5367C43.3523 27.0432 43.5061 26.6813 43.8136 26.4401C44.1211 26.1988 44.5715 26.0782 45.1646 26.0782H48.8111V26.8239H45.2744C44.9559 26.8239 44.7362 26.8787 44.6044 26.9884C44.4726 27.0981 44.4067 27.2735 44.4067 27.5367C44.4067 27.7012 44.4397 27.8328 44.5056 27.9425C44.5715 28.0521 44.6593 28.1399 44.7692 28.2057C44.879 28.2715 45.0108 28.3373 45.1646 28.3811C45.3184 28.425 45.4831 28.4689 45.6698 28.5127L47.0098 28.8088C47.3503 28.8856 47.6579 28.9514 47.9215 29.0282C48.1961 29.1049 48.4267 29.1926 48.6134 29.3133C48.8002 29.4339 48.9539 29.5765 49.0528 29.7519C49.1516 29.9274 49.2065 30.1577 49.2065 30.4428C49.2065 30.6731 49.1736 30.8705 49.1187 31.0569C49.0638 31.2324 48.9759 31.3969 48.8441 31.5175C48.7123 31.6491 48.5475 31.7478 48.3388 31.8136C48.1302 31.8794 47.8556 31.9233 47.537 31.9233H43.4402V31.1776H43.4621Z" fill="white"/>
<path d="M53.0507 31.1775H56.884C57.4222 31.1775 57.6967 30.9363 57.6967 30.4428C57.6967 30.2893 57.6638 30.1577 57.5869 30.0699C57.51 29.9712 57.4002 29.8945 57.2574 29.8287C57.1146 29.7629 56.9499 29.708 56.7412 29.6532C56.5325 29.6093 56.3018 29.5545 56.0382 29.4887L54.8081 29.2255C54.16 29.083 53.6877 28.8965 53.3912 28.6443C53.0946 28.403 52.9409 28.0302 52.9409 27.5367C52.9409 27.0432 53.0946 26.6813 53.4022 26.44C53.7097 26.1988 54.16 26.0782 54.7531 26.0782H58.3997V26.8239H54.863C54.5445 26.8239 54.3248 26.8787 54.193 26.9884C54.0612 27.098 53.9953 27.2735 53.9953 27.5367C53.9953 27.7012 54.0282 27.8328 54.0941 27.9424C54.16 28.0521 54.2479 28.1398 54.3577 28.2056C54.4676 28.2714 54.5994 28.3372 54.7531 28.3811C54.9069 28.425 55.0717 28.4688 55.2584 28.5127L56.5984 28.8088C56.9389 28.8856 57.2464 28.9514 57.51 29.0281C57.7846 29.1049 58.0153 29.1926 58.202 29.3132C58.3887 29.4339 58.5425 29.5764 58.6413 29.7519C58.7402 29.9274 58.7951 30.1577 58.7951 30.4428C58.7951 30.6731 58.7621 30.8705 58.7072 31.0569C58.6523 31.2324 58.5644 31.3969 58.4326 31.5175C58.3008 31.6491 58.1361 31.7478 57.9274 31.8136C57.7187 31.8794 57.4441 31.9233 57.1256 31.9233H53.0507V31.1775Z" fill="white"/>
<path d="M63.0787 26.0123C63.6828 26.0123 64.199 26.0672 64.6384 26.1659C65.0777 26.2646 65.4292 26.44 65.7148 26.6703C65.9894 26.9006 66.1981 27.2077 66.3408 27.5915C66.4726 27.9753 66.5495 28.4359 66.5495 28.9842C66.5495 29.5326 66.4836 30.0041 66.3408 30.3879C66.209 30.7718 66.0004 31.0898 65.7148 31.3201C65.4402 31.5613 65.0777 31.7258 64.6384 31.8355C64.199 31.9452 63.6828 32 63.0787 32C62.4746 32 61.9584 31.9452 61.5191 31.8355C61.0797 31.7258 60.7282 31.5613 60.4427 31.3201C60.1681 31.0898 59.9594 30.7718 59.8166 30.3879C59.6848 30.0041 59.6079 29.5326 59.6079 28.9842C59.6079 28.4359 59.6738 27.9644 59.8166 27.5915C59.9484 27.2077 60.1571 26.9116 60.4427 26.6703C60.7282 26.4291 61.0797 26.2755 61.5191 26.1659C61.9584 26.0672 62.4746 26.0123 63.0787 26.0123ZM60.7392 28.9842C60.7392 29.401 60.7832 29.7519 60.871 30.037C60.9589 30.3221 61.0907 30.5634 61.2664 30.7389C61.4531 30.9143 61.6838 31.0459 61.9804 31.1337C62.2769 31.2104 62.6394 31.2543 63.0787 31.2543C63.5071 31.2543 63.8805 31.2104 64.1771 31.1337C64.4736 31.0569 64.7153 30.9253 64.891 30.7389C65.0777 30.5634 65.2095 30.3221 65.2864 30.037C65.3743 29.7519 65.4182 29.401 65.4182 28.9842C65.4182 28.5675 65.3743 28.2276 65.2864 27.9424C65.1986 27.6573 65.0667 27.427 64.891 27.2625C64.7043 27.087 64.4736 26.9664 64.1771 26.8896C63.8805 26.8129 63.5181 26.769 63.0787 26.769C62.6504 26.769 62.2769 26.8129 61.9804 26.8896C61.6838 26.9664 61.4422 27.087 61.2664 27.2625C61.0797 27.438 60.9479 27.6683 60.871 27.9424C60.7832 28.2276 60.7392 28.5675 60.7392 28.9842Z" fill="white"/>
<path d="M68.6584 24.2029H67.593V31.9342H68.6584V24.2029Z" fill="white"/>
<path d="M75.7317 30.9692C75.7317 31.2762 75.6548 31.5175 75.501 31.682C75.3473 31.8465 75.0837 31.9342 74.7102 31.9342H72.217C71.4811 31.9342 70.9099 31.7917 70.5255 31.4956C70.1301 31.1995 69.9434 30.7169 69.9434 30.037V26.0782H71.0088V29.8616C71.0088 30.2564 71.1076 30.5744 71.3053 30.8156C71.503 31.0569 71.8545 31.1775 72.3597 31.1775H74.2819C74.4137 31.1775 74.5015 31.1556 74.5784 31.1008C74.6443 31.0459 74.6773 30.9472 74.6773 30.8047V26.0782H75.7427V30.9692H75.7317Z" fill="white"/>
<path d="M79.565 31.9342C79.1366 31.9342 78.7961 31.8903 78.5105 31.8026C78.2359 31.7148 78.0163 31.5942 77.8515 31.4297C77.6868 31.2652 77.5769 31.0678 77.511 30.8375C77.4451 30.6072 77.4122 30.344 77.4122 30.0479V26.8238H76.4236V26.0781H77.4122V24.2029H78.4776V26.0781H80.3558V26.8238H78.4776V29.9931C78.4776 30.2234 78.4995 30.4098 78.5654 30.5634C78.6204 30.7169 78.7082 30.8375 78.8181 30.9253C78.9279 31.013 79.0817 31.0788 79.2684 31.1226C79.4551 31.1555 79.6638 31.1775 79.9274 31.1775H80.3777V31.9232H79.565V31.9342Z" fill="white"/>
<path d="M81.0479 24.2029H82.1462V25.2227H81.0479V24.2029ZM81.0698 26.0781H82.1352V31.9342H81.0698V26.0781Z" fill="white"/>
<path d="M86.6604 26.0123C87.2645 26.0123 87.7808 26.0672 88.2201 26.1659C88.6595 26.2646 89.0109 26.44 89.2965 26.6703C89.5821 26.9006 89.7798 27.2077 89.9226 27.5915C90.0544 27.9753 90.1313 28.4359 90.1313 28.9842C90.1313 29.5326 90.0654 30.0041 89.9226 30.3879C89.7908 30.7718 89.5821 31.0898 89.2965 31.3201C89.0219 31.5613 88.6595 31.7258 88.2201 31.8355C87.7808 31.9452 87.2645 32 86.6604 32C86.0564 32 85.5401 31.9452 85.1008 31.8355C84.6614 31.7258 84.31 31.5613 84.0244 31.3201C83.7498 31.0898 83.5411 30.7718 83.3983 30.3879C83.2665 30.0041 83.1896 29.5326 83.1896 28.9842C83.1896 28.4359 83.2555 27.9644 83.3983 27.5915C83.5301 27.2077 83.7388 26.9116 84.0244 26.6703C84.299 26.44 84.6614 26.2755 85.1008 26.1659C85.5401 26.0672 86.0564 26.0123 86.6604 26.0123ZM84.3209 28.9842C84.3209 29.401 84.3649 29.7519 84.4527 30.037C84.5406 30.3221 84.6724 30.5634 84.8482 30.7389C85.0349 30.9143 85.2655 31.0459 85.5621 31.1337C85.8586 31.2104 86.2211 31.2543 86.6604 31.2543C87.0888 31.2543 87.4623 31.2104 87.7588 31.1337C88.0554 31.0569 88.297 30.9253 88.4727 30.7389C88.6595 30.5634 88.7913 30.3221 88.8682 30.037C88.956 29.7519 89 29.401 89 28.9842C89 28.5675 88.956 28.2276 88.8682 27.9424C88.7803 27.6573 88.6485 27.427 88.4727 27.2625C88.286 27.087 88.0554 26.9664 87.7588 26.8896C87.4623 26.8129 87.0998 26.769 86.6604 26.769C86.2321 26.769 85.8586 26.8129 85.5621 26.8896C85.2655 26.9664 85.0239 27.087 84.8482 27.2625C84.6614 27.438 84.5296 27.6683 84.4527 27.9424C84.3649 28.2276 84.3209 28.5675 84.3209 28.9842Z" fill="white"/>
<path d="M91.1746 27.0432C91.1746 26.7361 91.2515 26.4949 91.4053 26.3304C91.559 26.1659 91.8227 26.0782 92.1961 26.0782H94.6125C95.3484 26.0782 95.9195 26.2207 96.304 26.5168C96.6994 26.8129 96.8861 27.2954 96.8861 27.9753V31.9342H95.8207V28.1508C95.8207 27.756 95.7218 27.438 95.5241 27.1967C95.3264 26.9555 94.9749 26.8348 94.4697 26.8348H92.6245C92.4926 26.8348 92.4048 26.8568 92.3279 26.9116C92.262 26.9664 92.229 27.0651 92.229 27.2077V31.9342H91.1636V27.0432H91.1746Z" fill="white"/>
<path d="M98.0284 31.1775H101.862C102.4 31.1775 102.674 30.9363 102.674 30.4428C102.674 30.2893 102.642 30.1577 102.565 30.0699C102.488 29.9712 102.378 29.8945 102.235 29.8287C102.092 29.7629 101.928 29.708 101.719 29.6532C101.51 29.6093 101.28 29.5545 101.016 29.4887L99.7858 29.2255C99.1378 29.083 98.6655 28.8965 98.3689 28.6443C98.0723 28.403 97.9186 28.0302 97.9186 27.5367C97.9186 27.0432 98.0724 26.6813 98.3799 26.44C98.6874 26.1988 99.1378 26.0782 99.7309 26.0782H103.377V26.8239H99.8407C99.5222 26.8239 99.3025 26.8787 99.1707 26.9884C99.0389 27.098 98.973 27.2735 98.973 27.5367C98.973 27.7012 99.006 27.8328 99.0719 27.9424C99.1378 28.0521 99.2256 28.1398 99.3355 28.2056C99.4453 28.2714 99.5771 28.3372 99.7309 28.3811C99.8846 28.425 100.049 28.4688 100.236 28.5127L101.576 28.8088C101.917 28.8856 102.224 28.9514 102.488 29.0281C102.762 29.1049 102.993 29.1926 103.18 29.3132C103.366 29.4339 103.52 29.5764 103.619 29.7519C103.718 29.9274 103.773 30.1577 103.773 30.4428C103.773 30.6731 103.74 30.8705 103.685 31.0569C103.63 31.2324 103.542 31.3969 103.41 31.5175C103.279 31.6491 103.114 31.7478 102.905 31.8136C102.696 31.8794 102.422 31.9233 102.103 31.9233H98.0064V31.1775H98.0284Z" fill="white"/>
<path d="M20.2209 3.59711H18.76C18.1779 3.59711 17.7056 4.06866 17.7056 4.63892V15.397C17.7056 15.9782 18.1779 16.4388 18.76 16.4388H20.2209C20.803 16.4388 21.2643 15.9672 21.2643 15.397V4.64988C21.2753 4.06866 20.803 3.59711 20.2209 3.59711Z" fill="white"/>
<path d="M14.9926 3.59711C14.07 3.59711 13.3011 4.14543 12.9277 4.93501L9.06145 13.1379C8.97358 13.3353 8.78686 13.6423 8.63309 13.6423C8.47932 13.6423 8.30358 13.3243 8.20473 13.1379L4.31654 4.93501C3.9431 4.14543 3.17425 3.59711 2.25163 3.59711H0L6.1508 15.4628C6.7549 16.6252 8.00702 16.6033 8.64407 16.6033C9.52276 16.6033 10.5552 16.5594 11.1044 15.4628L17.2442 3.59711H14.9926Z" fill="white"/>
<path d="M82.7832 1.62293C82.7832 1.04171 82.3109 0.581116 81.7287 0.581116H80.2679C79.6858 0.581116 79.2245 1.05267 79.2245 1.62293V12.2494C79.2245 13.8724 79.8066 14.8155 80.8391 15.4954C81.8386 16.1534 82.9919 16.4386 85.1556 16.4386H86.3199C86.902 16.4386 87.3743 15.967 87.3743 15.3967V14.2562H86.4956C85.8586 14.2562 84.5186 14.2343 83.7278 13.6969C82.6953 13.017 82.7832 11.7998 82.7832 10.9334V1.62293Z" fill="white"/>
<path d="M60.0253 14.2781C59.3883 14.2781 58.0483 14.2562 57.2574 13.7188C56.225 13.0389 56.3129 11.8216 56.3129 10.9553V5.77912H59.7617C60.3438 5.77912 60.8051 5.30756 60.8051 4.73731V3.5968H56.3129V1.62284C56.3129 1.04162 55.8406 0.570068 55.2584 0.570068H53.7976C53.2155 0.570068 52.7542 1.04162 52.7542 1.62284V3.5968H45.3403V1.62284C45.3403 1.04162 44.868 0.570068 44.2968 0.570068H42.836C42.2539 0.570068 41.7926 1.04162 41.7926 1.62284V3.5968H39.5739V4.73731C39.5739 5.31853 40.0462 5.77912 40.6174 5.77912H41.7816V12.2603C41.7816 13.8833 42.3637 14.8264 43.3962 15.5063C44.3957 16.1643 45.549 16.4494 47.7127 16.4494H48.877C49.4591 16.4494 49.9204 15.9779 49.9204 15.4076V14.2671H49.0417C48.4047 14.2671 47.0647 14.2452 46.2739 13.7078C45.2414 13.0279 45.3293 11.8106 45.3293 10.9443V5.77912H52.7432V12.2603C52.7432 13.8833 53.3253 14.8264 54.3578 15.5063C55.3573 16.1643 56.5106 16.4494 58.6743 16.4494H59.8386C60.4207 16.4494 60.893 15.9779 60.893 15.4076V14.2671H60.0253V14.2781Z" fill="white"/>
<path d="M38.2777 15.4079V14.2674H30.4135C29.1065 14.2674 27.6237 14.1249 27.1624 12.7431C27.0415 12.3593 26.9537 11.5258 26.9537 10.9775H36.3117C36.9487 10.9775 37.5528 10.8788 38.0471 10.495C38.7171 9.95763 38.805 9.21191 38.805 8.55393C38.805 6.9309 38.4095 5.3298 36.5314 4.38669C35.0486 3.63001 33.1045 3.56421 31.2153 3.56421C29.6996 3.56421 26.9647 3.56421 25.1963 4.78148C23.4389 5.99875 23.2852 7.76435 23.2852 10.166C23.2852 11.8658 23.373 13.6314 24.4384 14.8486C25.7784 16.351 27.7225 16.4717 29.3591 16.4717H37.2453C37.8164 16.4607 38.2777 15.9892 38.2777 15.4079ZM35.1255 8.03851C35.1255 8.37847 35.0376 8.79519 34.3346 8.79519H29.2822C27.9971 8.79519 26.9537 9.37641 26.9537 10.1002V8.79519C26.9866 7.95077 26.9537 7.23796 27.6786 6.59094C28.6451 5.71363 30.106 5.74653 31.0505 5.74653C32.0501 5.74653 33.2033 5.79039 34.093 6.32775C34.6092 6.63481 35.1255 7.23796 35.1255 8.03851Z" fill="white"/>
<path d="M76.7094 15.4079V14.2674H68.8452C67.5381 14.2674 66.0554 14.1248 65.5941 12.7431C65.4732 12.3592 65.3854 11.5258 65.3854 10.9775H74.7434C75.3804 10.9775 75.9845 10.8788 76.4788 10.495C77.1488 9.9576 77.2366 9.21188 77.2366 8.5539C77.2366 6.93087 76.8412 5.32977 74.963 4.38666C73.4803 3.62998 71.5362 3.56418 69.647 3.56418C68.1313 3.56418 65.3963 3.56418 63.628 4.78145C61.8706 5.99872 61.7169 7.76432 61.7169 10.166C61.7169 11.8658 61.8047 13.6313 62.8701 14.8486C64.2101 16.351 66.1542 16.4716 67.7908 16.4716H75.677C76.2371 16.4607 76.7094 15.9891 76.7094 15.4079ZM73.5462 8.03848C73.5462 8.37844 73.4583 8.79516 72.7553 8.79516H67.7029C66.4178 8.79516 65.3744 9.37638 65.3744 10.1002V8.79516C65.4073 7.95074 65.3744 7.23793 66.0993 6.59091C67.0659 5.7136 68.5267 5.7465 69.4713 5.7465C70.4708 5.7465 71.624 5.79036 72.5137 6.32772C73.0299 6.63477 73.5462 7.23793 73.5462 8.03848Z" fill="white"/>
<path d="M20.2209 0H18.76C18.1779 0 17.7056 0.471556 17.7056 1.04181V1.32694V3.58602H17.7166C17.8155 2.99383 18.4964 2.36875 19.474 2.36875H20.1989C20.781 2.36875 21.2423 1.89719 21.2423 1.32694V1.04181C21.2753 0.471556 20.803 0 20.2209 0Z" fill="white"/>
</svg>
